<?xml version="1.0" encoding="utf-8"?>
<!-- Generator: Adobe Illustrator 16.0.0, SVG Export Plug-In . SVG Version: 6.00 Build 0)  -->
<!DOCTYPE svg PUBLIC "-//W3C//DTD SVG 1.1//EN" "http://www.w3.org/Graphics/SVG/1.1/DTD/svg11.dtd">
<svg version="1.1" id="Layer_1" xmlns="http://www.w3.org/2000/svg" xmlns:xlink="http://www.w3.org/1999/xlink" x="0px" y="0px"
	 width="1452.581px" height="1133.147px" viewBox="0 0 1452.581 1133.147" enable-background="new 0 0 1452.581 1133.147"
	 xml:space="preserve">
<g>
	<path fill="#C1852F" d="M1084.381,200.608H525.597v-2.068c0-37.625-30.778-68.414-68.402-68.414H198.986
		c-37.619,0-68.408,30.79-68.408,68.414v70.482v27.551v574.705c0,0.781,0.63,1.422,1.416,1.422c0.58,0,1.076-0.351,1.299-0.836
		l0.028-0.083l167.344-476.461c3.846-10.943,10.419-21.273,18.754-30.333c18.681-20.314,46.293-34.201,72.316-34.201h124.563
		h636.485v-61.763C1152.783,231.392,1122.011,200.608,1084.381,200.608z"/>
	<path fill="#DB9B2C" d="M1307.846,376.387H422.43c-37.619,0-78.895,28.934-91.739,64.294l-176.782,487.27
		c-12.844,35.361,7.459,64.294,45.078,64.294h885.395c37.63,0,78.905-28.933,91.749-64.294l176.783-487.27
		C1365.74,405.32,1345.453,376.387,1307.846,376.387z M753.405,832.7c-122.032,0-230.418-58.229-299.043-148.378
		c68.625-90.145,177.011-148.379,299.043-148.379c122.026,0,230.428,58.234,299.048,148.379
		C983.833,774.472,875.432,832.7,753.405,832.7z"/>
	<path fill="#DB9B2C" d="M857.542,684.322c0,57.499-46.616,104.131-104.137,104.131c-57.51,0-104.132-46.633-104.132-104.131
		c0-57.51,46.622-104.126,104.132-104.126C810.926,580.196,857.542,626.812,857.542,684.322z"/>
</g>
</svg>
