<?xml version="1.0" encoding="utf-8"?>
<!-- Generator: Adobe Illustrator 16.0.0, SVG Export Plug-In . SVG Version: 6.00 Build 0)  -->
<!DOCTYPE svg PUBLIC "-//W3C//DTD SVG 1.1//EN" "http://www.w3.org/Graphics/SVG/1.1/DTD/svg11.dtd">
<svg version="1.1" id="Layer_1" xmlns="http://www.w3.org/2000/svg" xmlns:xlink="http://www.w3.org/1999/xlink" x="0px" y="0px"
	 width="1960px" height="1480px" viewBox="0 0 1960 1480" enable-background="new 0 0 1960 1480" xml:space="preserve">
<g>
	<g>
		<path fill="#C1852F" d="M1422.992,192.43H828.964v-2.206c0-39.994-32.729-72.718-72.724-72.718H481.748
			c-39.995,0-72.718,32.724-72.718,72.718v74.924v29.301v610.946c0,0.836,0.673,1.509,1.509,1.509c0.614,0,1.141-0.368,1.375-0.889
			l0.029-0.094l177.896-506.505c4.089-11.635,11.073-22.615,19.936-32.244c19.872-21.591,49.214-36.362,76.872-36.362h132.426
			h676.632v-65.663C1495.704,225.147,1462.987,192.43,1422.992,192.43z"/>
		<path fill="#DB9B2C" d="M1660.535,379.294H719.288c-39.995,0-83.874,30.764-97.521,68.354l-187.94,517.993
			c-13.642,37.59,7.926,68.354,47.921,68.354h941.245c39.995,0,83.874-30.764,97.521-68.354l187.932-517.993
			C1722.086,410.058,1700.536,379.294,1660.535,379.294z M1071.137,864.377c-129.729,0-244.957-61.902-317.903-157.732
			c72.946-95.83,188.174-157.731,317.903-157.731s244.958,61.901,317.903,157.731
			C1316.095,802.475,1200.866,864.377,1071.137,864.377z"/>
		<path fill="#DB9B2C" d="M1181.837,706.645c0,61.136-49.559,110.701-110.7,110.701c-61.135,0-110.7-49.565-110.7-110.701
			c0-61.135,49.565-110.7,110.7-110.7C1132.278,595.944,1181.837,645.509,1181.837,706.645z"/>
	</g>
	<g>
		<g>
			<path fill="#C1852F" d="M364.15,1138.098l-5.505,176.644h7.447l56.397-176.644h63.528l-80.059,233.363H308.73l8.757-149.414
				l-43.44,149.414h-97.229l2.264-233.363h63.528l-5.838,176.644h7.458l56.719-176.644H364.15z"/>
			<path fill="#C1852F" d="M586.183,1371.461l1.937-50.893h-54.122l-15.882,50.893h-61.908l83.3-233.363H646.47l1.287,233.363
				H586.183z M572.892,1194.816l-25.61,82.323h42.463l3.568-82.323H572.892z"/>
			<path fill="#C1852F" d="M890.842,1188.663h-79.738l-32.074,182.798h-58.667l32.08-182.798h-80.06l9.079-50.565h218.453
				L890.842,1188.663z"/>
			<path fill="#C1852F" d="M967.333,1376c-30.898,0-52.285-6.698-64.171-20.1c-8.213-9.5-12.32-22.791-12.32-39.86
				c0-7.341,0.755-15.245,2.276-23.662l13.285-74.549c9.722-54.666,44.838-82.007,105.342-82.007
				c25.06,0,44.083,5.353,57.041,16.046c12.969,10.699,19.45,25.341,19.45,43.926c0,8.646-1.251,17.228-3.731,25.756
				c-2.486,8.546-4.92,14.864-7.283,18.959l-3.568,6.493h-57.368c7.131-8.213,10.693-19.883,10.693-35.005
				c0-7.997-2.06-14.314-6.154-18.965c-4.112-4.639-10.167-6.973-18.151-6.973c-21.825,0-34.794,12.109-38.901,36.303
				l-11.343,65.476c-1.088,5.616-1.626,11.126-1.626,16.525c0,14.268,8.541,21.398,25.61,21.398
				c20.527,0,32.847-11.559,36.953-34.677h58.345l-1.62,9.395C1061.438,1350.834,1027.182,1376,967.333,1376z"/>
			<path fill="#C1852F" d="M1316.089,1138.098l-40.849,233.363h-58.661l14.905-84.266h-63.195l-14.589,84.266h-58.673
				l41.176-233.363h58.334l-17.503,98.527h63.201l17.508-98.527H1316.089z"/>
			<path fill="#C1852F" d="M1483.654,1371.461h-162.711l41.165-233.363h162.71l-9.078,50.565h-104.371l-7.447,43.756h86.208
				l-9.067,50.553h-86.219l-6.481,37.924h104.37L1483.654,1371.461z"/>
			<path fill="#C1852F" d="M1656.078,1138.098c24.627,0,42.141,5.399,52.507,16.204c7.78,8.219,11.664,18.584,11.664,31.115
				c0,4.323-0.433,8.862-1.287,13.612l-4.551,25.282c-2.586,14.045-7.078,25.388-13.442,34.034
				c-6.376,8.646-13.454,14.806-21.234,18.473l29.506,94.643h-65.471l-27.233-87.19h-20.1l-13.29,87.19h-62.235l41.176-233.363
				H1656.078z M1635.659,1188.663h-24.312l-8.43,56.397h22.691c11.454,0,19.658-2.761,24.63-8.271
				c4.961-5.504,7.453-12.805,7.453-21.878C1657.692,1197.414,1650.356,1188.663,1635.659,1188.663z"/>
		</g>
	</g>
</g>
</svg>
