<?xml version="1.0" encoding="utf-8"?>
<!-- Generator: Adobe Illustrator 16.0.0, SVG Export Plug-In . SVG Version: 6.00 Build 0)  -->
<!DOCTYPE svg PUBLIC "-//W3C//DTD SVG 1.1//EN" "http://www.w3.org/Graphics/SVG/1.1/DTD/svg11.dtd">
<svg version="1.1" id="Layer_1" xmlns="http://www.w3.org/2000/svg" xmlns:xlink="http://www.w3.org/1999/xlink" x="0px" y="0px"
	 width="5342.502px" height="1133.147px" viewBox="0 0 5342.502 1133.147" enable-background="new 0 0 5342.502 1133.147"
	 xml:space="preserve">
<g>
	<g>
		<path fill="#C1852F" d="M1084.381,200.608H525.597v-2.068c0-37.625-30.778-68.414-68.402-68.414H198.986
			c-37.619,0-68.408,30.79-68.408,68.414v70.482v27.551v574.705c0,0.781,0.63,1.422,1.416,1.422c0.58,0,1.076-0.351,1.299-0.836
			l0.028-0.083l167.344-476.461c3.846-10.943,10.419-21.273,18.754-30.333c18.681-20.314,46.293-34.201,72.316-34.201h124.563
			h636.485v-61.763C1152.783,231.392,1122.011,200.608,1084.381,200.608z"/>
		<path fill="#DB9B2C" d="M1307.846,376.387H422.43c-37.619,0-78.895,28.934-91.739,64.294l-176.782,487.27
			c-12.844,35.361,7.459,64.294,45.078,64.294h885.395c37.63,0,78.905-28.933,91.749-64.294l176.783-487.27
			C1365.74,405.32,1345.453,376.387,1307.846,376.387z M753.405,832.7c-122.032,0-230.418-58.229-299.043-148.378
			c68.625-90.145,177.011-148.379,299.043-148.379c122.026,0,230.428,58.234,299.048,148.379
			C983.833,774.472,875.432,832.7,753.405,832.7z"/>
		<path fill="#DB9B2C" d="M857.542,684.322c0,57.499-46.616,104.131-104.137,104.131c-57.51,0-104.132-46.633-104.132-104.131
			c0-57.51,46.622-104.126,104.132-104.126C810.926,580.196,857.542,626.812,857.542,684.322z"/>
	</g>
	<g>
		<g>
			<path fill="#C1852F" d="M1969.396,434.175l-13.162,422.374h17.806l134.844-422.374h151.901l-191.427,557.986h-232.48
				l20.944-357.255l-103.869,357.255h-232.48l5.408-557.986h151.901l-13.953,422.374h17.828l135.623-422.374H1969.396z"/>
			<path fill="#C1852F" d="M2500.289,992.162l4.627-121.681h-129.402l-37.981,121.681h-148.021l199.171-557.986h255.755
				l3.077,557.986H2500.289z M2468.501,569.793l-61.228,196.841h101.533l8.535-196.841H2468.501z"/>
			<path fill="#C1852F" d="M3228.747,555.081h-190.658l-76.692,437.081h-140.272l76.709-437.081h-191.438l21.714-120.906h522.336
				L3228.747,555.081z"/>
			<path fill="#C1852F" d="M3411.645,1003.021c-73.877,0-125.015-16.022-153.44-48.06c-19.64-22.717-29.457-54.494-29.457-95.313
				c0-17.549,1.807-36.448,5.441-56.573l31.765-178.26c23.253-130.701,107.215-196.082,251.88-196.082
				c59.924,0,105.408,12.8,136.388,38.371c31.013,25.583,46.511,60.587,46.511,105.023c0,20.677-2.994,41.192-8.931,61.59
				c-5.943,20.437-11.758,35.54-17.41,45.334l-8.535,15.52h-137.168c17.054-19.64,25.571-47.536,25.571-83.7
				c0-19.116-4.922-34.224-14.712-45.34c-9.834-11.094-24.312-16.674-43.405-16.674c-52.186,0-83.192,28.956-93.015,86.805
				l-27.122,156.551c-2.604,13.43-3.886,26.608-3.886,39.52c0,34.107,20.421,51.16,61.234,51.16c49.08,0,78.537-27.64,88.354-82.914
				h139.504l-3.869,22.466C3636.654,942.847,3554.744,1003.021,3411.645,1003.021z"/>
			<path fill="#C1852F" d="M4245.539,434.175l-97.676,557.986h-140.251l35.634-201.484h-151.104l-34.881,201.484h-140.296
				l98.457-557.986h139.48l-41.85,235.591h151.116l41.866-235.591H4245.539z"/>
			<path fill="#C1852F" d="M4646.199,992.162h-389.048l98.429-557.986h389.048l-21.702,120.906h-249.563l-17.805,104.623h206.133
				l-21.686,120.878H4433.85l-15.497,90.68h249.556L4646.199,992.162z"/>
			<path fill="#C1852F" d="M5058.472,434.175c58.903,0,100.759,12.911,125.544,38.745c18.621,19.651,27.908,44.437,27.908,74.396
				c0,10.336-1.049,21.195-3.094,32.551l-10.877,60.458c-6.172,33.572-16.914,60.699-32.145,81.37s-32.155,35.4-50.775,44.174
				l70.549,226.292h-156.545l-65.107-208.475h-48.055l-31.783,208.475H4735.29l98.45-557.986H5058.472z M5009.659,555.081h-58.134
				l-20.153,134.854h54.254c27.384,0,47.001-6.606,58.887-19.785c11.868-13.162,17.828-30.617,17.828-52.308
				C5062.341,576.003,5044.791,555.081,5009.659,555.081z"/>
		</g>
	</g>
</g>
</svg>
